# xmcd
#
# Track frame offsets:
#	150
#	25542
#	50549
#	73622
#	94405
#	117118
#	137271
#	161815
#	182651
#	203816
#	223750
#	254069
#	280708
#	306248
#
# Disc length: 4354 seconds
# Revision: 0
# Processed by: cddbd v1.5.2PL0 Copyright (c) Steve Scherf et al.
# Submitted via: dBpowerAMP V12.0
#
DISCID=cc11000e
DTITLE=Various Artist - Shoutin' Down The Aisles
DYEAR=2010
DGENRE=Gospel
TTITLE0=Vickie Winans - Long As I Got King Jesus
TTITLE1=Fred Hammond and Radical For Christ - Jesus Be A Fence Around Me
TTITLE2=Kirk Franklin and The Family - He Can Handle It
TTITLE3=Shirley Caesar featuring Tonex - I Know The Truth (Lies)
TTITLE4=Jimmy Hicks and The Voices Of Integrity - Born Blessed
TTITLE5=Candi Staton and Dottie Peoples - Shut Up And Start Praying
TTITLE6=The Rance Allen Group featuring Fred Hammond - Miracle Worker
TTITLE7=Alvin Darling and Celebration - All Night
TTITLE8=Marvin Sapp - You Brought Me
TTITLE9=The Blind Boys Of Alabama - Down In The Hole
TTITLE10=Bryan Wilson and The Bapolstogic Band - If You're Talking About Jesus
TTITLE11=Chicago Mass Choir - Holy Ghost Power
TTITLE12=Keith Wonderboy Johnson - Let Go And Let God
TTITLE13=Deniece Williams - Glory To Glory To Glory
EXTD=
EXTT0=
EXTT1=
EXTT2=
EXTT3=
EXTT4=
EXTT5=
EXTT6=
EXTT7=
EXTT8=
EXTT9=
EXTT10=
EXTT11=
EXTT12=
EXTT13=
PLAYORDER=
